<svg width="500" height="500" viewBox="0 0 500 500" fill="none" xmlns="http://www.w3.org/2000/svg">
<rect width="500" height="500" rx="9" fill="#FFF173"/>
<path fill-rule="evenodd" clip-rule="evenodd" d="M119.531 348.429V324.319C119.531 321.045 121.615 318.663 124.889 318.663H125.782C129.056 318.663 131.14 321.342 131.14 324.319V374.92C131.14 387.124 125.187 396.947 114.471 403.198C109.411 406.174 104.053 407.663 98.3977 407.663H96.0164C83.8125 407.663 73.9899 401.709 67.7391 390.994C64.7625 385.934 63.2742 380.576 63.2742 374.92V372.539C63.2742 360.335 69.2274 350.513 79.943 344.262C85.0031 341.285 90.3609 339.797 96.0164 339.797H98.3977C106.434 340.095 113.578 343.071 119.531 348.429V348.429ZM74.5852 373.73C74.5852 382.659 79.05 389.208 86.7891 393.673C90.0633 395.459 93.3375 396.352 96.9094 396.352C105.541 396.352 112.09 392.184 116.555 384.743C118.638 381.171 119.531 377.599 119.531 373.432C119.531 365.693 115.959 359.74 109.709 355.275C105.839 352.596 101.672 351.108 97.207 351.108C87.682 351.108 80.8359 355.87 76.6688 364.502C75.1805 367.479 74.5852 370.753 74.5852 373.73V373.73ZM170.43 340.095H171.919C185.016 340.095 195.136 346.345 201.387 357.954C204.066 362.419 205.256 367.479 205.256 372.837V375.218C205.256 387.422 199.303 397.245 188.588 403.495C183.527 406.472 178.17 407.96 172.514 407.96H170.133C157.929 407.96 148.106 402.007 141.855 391.291C138.879 386.231 137.391 380.873 137.391 375.218V372.837C137.391 360.633 143.641 350.81 154.059 344.559C159.12 341.285 164.775 340.095 170.43 340.095ZM148.999 373.73C148.999 382.362 153.166 388.613 160.608 393.077C164.18 395.161 167.752 396.054 171.919 396.054C180.551 396.054 186.802 391.589 191.266 384.445C193.35 380.873 194.243 377.302 194.243 373.134C194.243 365.098 190.373 358.847 183.825 354.382C180.253 352.001 176.086 350.81 171.919 350.81C162.394 350.81 155.548 355.573 151.38 364.205C149.595 367.479 148.999 370.753 148.999 373.73ZM252.584 352.298C250.798 351.405 247.523 351.108 245.738 351.108C236.213 350.81 229.366 356.168 225.199 364.502C223.711 367.479 223.116 370.455 223.116 373.73C223.116 383.552 228.176 390.398 236.808 394.566C240.082 396.054 243.952 396.352 247.523 396.352C250.5 396.352 254.965 394.566 257.644 393.077L258.239 392.78H260.62C263.299 393.375 265.085 394.863 265.085 397.84V399.03C265.085 405.877 252.286 407.663 247.523 407.96C230.557 409.151 217.758 399.923 212.995 383.552C212.102 380.873 211.805 377.897 211.805 374.92V372.539C211.805 360.335 218.055 350.513 228.473 344.262C233.534 341.285 238.891 339.797 244.547 339.797H246.928C252.881 339.797 258.537 341.583 263.597 344.857L263.895 345.155L264.192 345.452C264.788 346.345 265.085 347.238 265.085 348.429V349.62C265.085 352.596 263.002 354.084 260.323 354.68H259.43C257.941 354.68 254.072 352.894 252.584 352.298ZM289.493 360.038C293.958 355.573 298.423 351.108 302.888 346.941C304.078 345.75 308.841 340.69 310.627 340.69H313.008C315.687 341.285 317.473 342.773 317.473 345.75V346.941C317.473 348.727 315.389 351.108 313.901 352.298L305.864 360.335L292.172 374.325C298.125 380.278 304.078 386.231 309.734 392.184L314.496 397.245C315.091 397.84 315.984 398.435 316.282 399.328C316.877 400.221 317.175 401.114 317.175 402.007V403.495C316.58 406.174 314.794 408.258 312.115 408.258H311.222C309.436 408.258 307.352 406.174 305.864 404.984C303.185 402.602 300.506 399.923 298.125 397.245L289.493 388.613V402.305C289.493 405.579 287.409 407.96 284.135 407.96H283.242C279.968 407.96 277.884 405.281 277.884 402.305V324.616C277.884 321.342 279.968 318.961 283.242 318.961H284.135C287.409 318.961 289.493 321.342 289.493 324.616V360.038V360.038ZM431.177 340.392H432.368C435.642 340.392 438.023 342.773 438.023 346.048C438.023 350.81 433.559 352.001 429.689 352.001C424.629 352.001 419.569 354.977 416.295 358.549C411.83 363.014 410.044 368.372 410.044 374.623V402.007C410.044 405.281 407.96 407.663 404.686 407.663H403.793C400.519 407.663 398.435 404.984 398.435 402.007V372.837C398.435 361.526 403.793 352.596 413.02 346.048C418.378 342.476 424.629 340.392 431.177 340.392V340.392ZM350.513 394.863C354.68 396.352 359.442 396.054 363.609 395.459C365.693 394.566 371.348 392.184 373.432 392.482H374.027C375.218 393.077 376.409 393.97 377.004 395.161C378.492 398.138 377.897 401.114 374.92 402.9L374.027 403.495C363.312 409.746 351.703 408.853 340.988 402.9C335.927 400.221 332.058 396.054 329.081 390.994L328.486 389.803C321.64 377.897 322.533 365.098 330.272 353.787C332.951 349.917 336.523 346.941 340.69 344.559L342.178 343.666C352.298 337.713 363.312 338.309 373.73 343.369C379.385 346.048 383.85 350.215 387.124 355.573L387.72 356.466C390.101 360.335 387.124 363.907 384.148 366.288C380.576 368.967 377.004 372.241 373.73 375.218C365.693 381.766 357.954 388.315 350.513 394.863ZM340.69 388.017L365.991 366.288C368.967 363.907 371.944 361.228 374.92 358.549C372.539 355.573 368.67 353.489 365.693 352.298C359.145 349.917 352.596 350.513 346.643 354.084C338.904 358.549 335.332 365.991 335.63 374.92C335.63 378.492 336.82 381.766 338.606 385.041C339.202 386.231 339.797 387.124 340.69 388.017" fill="#3A4D54"/>
<path fill-rule="evenodd" clip-rule="evenodd" d="M279.373 160.31H313.008V194.541H329.974C337.713 194.541 345.75 193.052 353.191 190.671C356.763 189.48 360.93 187.695 364.502 185.611C359.74 179.36 357.359 171.621 356.763 163.882C355.87 153.464 357.954 139.772 365.098 131.735L368.67 127.568L372.837 130.842C383.552 139.474 392.184 151.083 393.97 164.775C406.77 160.905 421.652 161.798 432.963 168.347L437.428 171.026L435.047 175.788C425.522 194.243 405.579 200.196 386.231 199.005C357.061 271.336 293.958 305.566 217.162 305.566C177.574 305.566 141.26 290.684 120.424 255.56L120.127 254.965L117.15 248.714C110.006 233.236 107.923 216.27 109.411 199.303L110.006 194.243H138.581V160.31H172.216V126.675H239.189V93.0399H279.373V160.31V160.31Z" fill="#3A4D54"/>
<path d="M388.017 172.812C390.398 155.25 377.302 141.558 368.967 135.009C359.74 145.725 358.252 174.3 372.837 186.206C364.502 193.35 347.536 200.196 329.677 200.196H114.769C112.983 218.651 116.257 235.617 123.698 250.202L126.08 254.667C127.568 257.346 129.354 259.727 131.14 262.406C140.07 263.002 148.106 263.299 155.548 263.002C170.133 262.704 182.039 260.918 191.266 257.941C192.755 257.346 193.945 258.239 194.541 259.43C195.136 260.918 194.243 262.109 193.052 262.704C191.862 263.002 190.671 263.597 189.183 263.895C182.039 265.978 174.3 267.169 164.477 267.764H162.691C158.822 268.062 154.655 268.062 150.19 268.062C145.427 268.062 140.962 268.062 135.605 267.764C153.464 288.005 181.444 299.911 216.567 299.911C290.981 299.911 354.084 266.871 381.766 193.052C401.709 195.136 420.759 190.076 429.391 173.109C415.997 165.37 398.137 167.752 388.017 172.812V172.812Z" fill="#00AADA"/>
<path d="M388.017 172.812C390.398 155.25 377.302 141.558 368.967 135.009C359.74 145.725 358.252 174.3 372.837 186.206C364.502 193.35 347.536 200.196 329.677 200.196H127.27C126.377 228.473 136.795 249.905 155.548 262.704C170.133 262.406 182.039 260.62 191.266 257.644C192.755 257.048 193.945 257.941 194.541 259.132C195.136 260.62 194.243 261.811 193.052 262.406C191.862 262.704 190.671 263.299 189.183 263.597C182.039 265.68 173.705 267.169 163.882 267.764L163.584 267.466C188.885 280.563 225.497 280.266 267.764 264.192C314.794 246.035 358.847 211.507 389.505 172.216C388.91 172.514 388.612 172.812 388.017 172.812V172.812Z" fill="#28B8EB"/>
<path d="M115.066 222.52C116.257 232.343 119.234 241.57 123.698 250.202L126.08 254.667C127.568 257.346 129.354 259.727 131.14 262.406C140.07 263.002 148.106 263.299 155.548 263.002C170.133 262.704 182.039 260.918 191.266 257.941C192.755 257.346 193.945 258.239 194.541 259.43C195.136 260.918 194.243 262.109 193.052 262.704C191.862 263.002 190.671 263.597 189.183 263.895C182.039 265.978 173.705 267.466 163.882 268.062H162.691C158.822 268.359 154.655 268.359 150.487 268.359C145.725 268.359 140.963 268.359 135.902 268.062C153.762 288.302 182.039 300.209 217.162 300.209C280.861 300.209 336.225 276.098 368.372 222.818H115.066V222.52Z" fill="#028BB8"/>
<path d="M129.354 222.52C133.223 239.784 142.153 253.477 155.548 262.704C170.133 262.406 182.039 260.62 191.266 257.644C192.755 257.048 193.945 257.941 194.541 259.132C195.136 260.62 194.243 261.811 193.052 262.406C191.862 262.704 190.671 263.299 189.183 263.597C182.039 265.68 173.705 267.169 163.584 267.764C188.885 280.861 225.497 280.563 267.466 264.49C292.767 254.667 317.473 240.082 339.499 222.52H129.354V222.52Z" fill="#019BC6"/>
<path fill-rule="evenodd" clip-rule="evenodd" d="M143.939 165.668H173.109V194.838H143.939V165.668ZM146.32 168.347H148.702V192.457H146.32V168.347ZM150.785 168.347H153.166V192.457H150.785V168.347ZM155.25 168.347H157.631V192.457H155.25V168.347V168.347ZM159.417 168.347H161.798V192.457H159.417V168.347ZM163.882 168.347H166.263V192.457H163.882V168.347ZM168.347 168.347H170.728V192.457H168.347V168.347ZM177.574 132.33H206.745V161.203H177.574V132.33ZM179.955 134.712H182.337V158.822H179.955V134.712ZM184.42 134.712H186.802V158.822H184.42V134.712ZM188.587 134.712H190.969V158.822H188.587V134.712ZM193.052 134.712H195.434V158.822H193.052V134.712ZM197.517 134.712H199.898V158.822H197.517V134.712ZM201.982 134.712H204.363V158.822H201.982V134.712Z" fill="#00ACD3"/>
<path fill-rule="evenodd" clip-rule="evenodd" d="M177.574 165.668H206.745V194.838H177.574V165.668ZM179.955 168.347H182.337V192.457H179.955V168.347ZM184.42 168.347H186.802V192.457H184.42V168.347ZM188.588 168.347H190.969V192.457H188.588V168.347ZM193.052 168.347H195.434V192.457H193.052V168.347ZM197.517 168.347H199.898V192.457H197.517V168.347ZM201.982 168.347H204.363V192.457H201.982V168.347Z" fill="#23C2EE"/>
<path fill-rule="evenodd" clip-rule="evenodd" d="M211.209 165.668H240.38V194.838H211.209V165.668ZM213.591 168.347H215.972V192.457H213.591V168.347ZM217.758 168.347H220.139V192.457H217.758V168.347ZM222.223 168.347H224.604V192.457H222.223V168.347ZM226.687 168.347H229.069V192.457H226.687V168.347ZM231.152 168.347H233.534V192.457H231.152V168.347ZM235.32 168.347H237.701V192.457H235.32V168.347Z" fill="#00ACD3"/>
<path fill-rule="evenodd" clip-rule="evenodd" d="M211.209 132.33H240.38V161.203H211.209V132.33ZM213.591 134.712H215.972V158.822H213.591V134.712ZM217.758 134.712H220.139V158.822H217.758V134.712ZM222.223 134.712H224.604V158.822H222.223V134.712ZM226.687 134.712H229.069V158.822H226.687V134.712ZM231.152 134.712H233.534V158.822H231.152V134.712ZM235.32 134.712H237.701V158.822H235.32V134.712ZM244.547 165.668H273.717V194.838H244.547V165.668ZM247.226 168.347H249.607V192.457H247.226V168.347ZM251.393 168.347H253.774V192.457H251.393V168.347ZM255.858 168.347H258.239V192.457H255.858V168.347ZM260.323 168.347H262.704V192.457H260.323V168.347ZM264.49 168.347H266.871V192.457H264.49V168.347ZM268.955 168.347H271.336V192.457H268.955V168.347Z" fill="#23C2EE"/>
<path fill-rule="evenodd" clip-rule="evenodd" d="M244.547 132.33H273.717V161.203H244.547V132.33ZM247.226 134.712H249.607V158.822H247.226V134.712ZM251.393 134.712H253.774V158.822H251.393V134.712ZM255.858 134.712H258.239V158.822H255.858V134.712ZM260.323 134.712H262.704V158.822H260.323V134.712ZM264.49 134.712H266.871V158.822H264.49V134.712ZM268.955 134.712H271.336V158.822H268.955V134.712Z" fill="#00ACD3"/>
<path fill-rule="evenodd" clip-rule="evenodd" d="M244.547 98.6953H273.717V127.866H244.547V98.6953ZM247.226 101.077H249.607V125.484H247.226V101.077ZM251.393 101.077H253.774V125.484H251.393V101.077ZM255.858 101.077H258.239V125.484H255.858V101.077ZM260.323 101.077H262.704V125.484H260.323V101.077ZM264.49 101.077H266.871V125.484H264.49V101.077ZM268.955 101.077H271.336V125.484H268.955V101.077Z" fill="#23C2EE"/>
<path fill-rule="evenodd" clip-rule="evenodd" d="M278.182 165.668H307.352V194.838H278.182V165.668ZM280.563 168.347H282.945V192.457H280.563V168.347ZM285.028 168.347H287.409V192.457H285.028V168.347ZM289.493 168.347H291.874V192.457H289.493V168.347ZM293.66 168.347H296.041V192.457H293.66V168.347ZM298.125 168.347H300.506V192.457H298.125V168.347ZM302.59 168.347H304.971V192.457H302.59V168.347Z" fill="#00ACD3"/>
<path fill-rule="evenodd" clip-rule="evenodd" d="M204.661 242.166C209.126 242.166 212.698 245.738 212.698 250.202C212.698 254.667 209.126 258.239 204.661 258.239C200.196 258.239 196.624 254.667 196.624 250.202C196.922 245.738 200.494 242.166 204.661 242.166Z" fill="#D4EEF1"/>
<path fill-rule="evenodd" clip-rule="evenodd" d="M204.661 244.249C205.256 244.249 206.149 244.249 206.745 244.547C206.149 244.845 205.554 245.738 205.554 246.63C205.554 247.821 206.745 249.012 207.935 249.012C208.828 249.012 209.721 248.416 210.019 247.821C210.316 248.416 210.316 249.309 210.316 249.905C210.316 253.179 207.637 255.56 204.661 255.56C201.387 255.56 199.005 252.881 199.005 249.905C199.005 246.928 201.684 244.249 204.661 244.249M62.9766 225.497H435.94C427.903 223.413 410.341 220.734 413.02 210.019C398.137 226.985 362.716 221.925 353.489 213.591C343.369 228.176 285.028 222.52 281.159 211.209C268.657 226.092 229.664 226.092 217.162 211.209C212.995 222.52 154.655 228.176 144.832 213.591C135.902 221.925 100.184 226.985 85.3008 210.019C88.575 220.437 71.0133 223.413 62.9766 225.497" fill="#3A4D54"/>
<path d="M226.092 299.911C206.149 290.386 195.434 277.587 189.183 263.597C181.741 265.68 172.812 267.169 162.691 267.764C158.822 268.062 154.655 268.062 150.487 268.062C145.427 268.062 140.367 268.062 135.009 267.764C153.166 285.921 175.788 299.911 217.162 300.209C220.139 299.911 223.116 299.911 226.092 299.911V299.911Z" fill="#BFDBE0"/>
<path d="M196.624 276.396C193.945 272.527 191.266 268.062 189.183 263.597C181.741 265.68 172.812 267.169 162.691 267.764C169.835 271.634 179.955 275.205 196.624 276.396V276.396Z" fill="#D4EEF1"/>
</svg>
