<svg width="667" height="667" viewBox="0 0 667 667" fill="none" xmlns="http://www.w3.org/2000/svg">
<path fill-rule="evenodd" clip-rule="evenodd" d="M133.265 484.646L133.454 180.774L364.004 141.316V523.991L133.265 484.646ZM496.476 382.07H373.113V358.184H496.476V342.272H373.113V318.423H496.476V302.512H373.113V278.625H496.476V262.713H373.113V238.827H496.476V222.915H373.113L373.34 185.347H522.668C530.68 185.045 532.306 186.632 532.003 194.682V469.339V471.985C532.117 476.785 530.643 480.904 522.668 479.997H373.34L373.113 437.78H496.476V421.869H373.113V397.982H496.476V382.07ZM78.6515 589.338H589.338L588.658 79.3318H78.6515V589.338Z" fill="#2B5797"/>
<path fill-rule="evenodd" clip-rule="evenodd" d="M293.516 262.033L275.261 360.074L256.364 265.132L230.777 266.606L212.635 356.634L197.29 269.403L174.689 269.668L198.197 395.979L221.933 397.264L241.435 309.957L251.828 354.215C254.852 369.258 257.913 383.658 260.71 399.002L287.545 401.762L318.65 261.088L293.516 262.033Z" fill="#2B5797"/>
</svg>
