<svg width="656" height="656" viewBox="0 0 656 656" fill="none" xmlns="http://www.w3.org/2000/svg">
<path fill-rule="evenodd" clip-rule="evenodd" d="M356.878 135.15V516.908L129.906 477.561V174.497L356.878 135.15ZM367.663 179.22H518.396C526.726 179.22 528.326 180.856 528.326 189.15V462.871C528.326 471.164 526.726 472.8 518.396 472.8H367.663V446.99H425.197V407.345H367.663V395.445H425.197V355.763H367.663V343.862H425.197V304.18H367.663V292.279H425.197V252.634H367.663V240.733H425.197V201.051H367.663V179.22ZM77.4674 579.909H578.57L578.644 78.7319H77.3931L77.4674 579.909Z" fill="#1E7145"/>
<path fill-rule="evenodd" clip-rule="evenodd" d="M265.13 255.163L244.452 302.469L228.386 258.026L202.538 259.179L228.2 323.928L199.303 387.263L224.704 389.159L245.084 343.601L264.051 391.8L293.283 393.399L261.597 323.667L291.907 253.229L265.13 255.163Z" fill="#1E7145"/>
<path fill-rule="evenodd" clip-rule="evenodd" d="M437.098 446.99H502.553V407.345H437.098V446.99Z" fill="#1E7145"/>
<path fill-rule="evenodd" clip-rule="evenodd" d="M437.098 395.445H502.553V355.763H437.098V395.445Z" fill="#1E7145"/>
<path fill-rule="evenodd" clip-rule="evenodd" d="M437.098 343.862H502.553V304.18H437.098V343.862Z" fill="#1E7145"/>
<path fill-rule="evenodd" clip-rule="evenodd" d="M437.098 240.733H502.553V201.051H437.098V240.733Z" fill="#1E7145"/>
<path fill-rule="evenodd" clip-rule="evenodd" d="M437.098 292.279H502.553V252.634H437.098V292.279Z" fill="#1E7145"/>
</svg>
