<svg width="500" height="500" viewBox="0 0 500 500" fill="none" xmlns="http://www.w3.org/2000/svg">
<rect width="500" height="500" rx="9" fill="black"/>
<path d="M210.212 263.3C210.212 263.3 198.769 269.959 218.369 272.209C242.111 274.92 254.247 274.53 280.408 269.586C280.408 269.586 287.304 273.896 296.907 277.631C238.244 302.764 164.138 276.175 210.212 263.3ZM203.038 230.495C203.038 230.495 190.201 240.003 209.815 242.031C235.181 244.648 255.206 244.864 289.882 238.188C289.882 238.188 294.666 243.052 302.203 245.704C231.289 266.45 152.302 247.338 203.038 230.495V230.495Z" fill="#0074BD"/>
<path d="M263.467 174.845C277.931 191.494 259.676 206.463 259.676 206.463C259.676 206.463 296.377 187.518 279.523 163.786C263.777 141.664 251.711 130.678 317.053 92.7815C317.057 92.7815 214.48 118.392 263.467 174.845Z" fill="#EA2D2E"/>
<path d="M341.054 287.565C341.054 287.565 349.528 294.551 331.723 299.952C297.868 310.206 190.8 313.301 161.061 300.36C150.378 295.708 170.424 289.255 176.727 287.9C183.302 286.474 187.058 286.736 187.058 286.736C175.17 278.363 110.21 303.179 154.065 310.297C273.662 329.681 372.072 301.565 341.054 287.565V287.565ZM215.721 196.504C215.721 196.504 161.263 209.442 196.438 214.146C211.296 216.132 240.892 215.675 268.481 213.362C291.022 211.47 313.642 207.424 313.642 207.424C313.642 207.424 305.701 210.832 299.949 214.756C244.638 229.303 137.81 222.526 168.567 207.654C194.571 195.072 215.721 196.504 215.721 196.504V196.504ZM313.416 251.105C369.636 221.899 343.639 193.828 325.496 197.609C321.06 198.536 319.067 199.337 319.067 199.337C319.067 199.337 320.722 196.745 323.869 195.633C359.765 183.02 387.365 232.85 312.294 252.585C312.294 252.585 313.154 251.805 313.416 251.105Z" fill="#0074BD"/>
<path d="M279.527 31.575C279.527 31.575 310.659 62.7218 249.993 110.608C201.344 149.03 238.899 170.933 249.972 195.968C221.574 170.344 200.745 147.786 214.717 126.796C235.237 95.9872 292.084 81.0427 279.527 31.575V31.575Z" fill="#EA2D2E"/>
<path d="M221.25 330.276C275.202 333.726 358.078 328.357 360.04 302.827C360.04 302.827 356.27 312.503 315.444 320.182C269.387 328.851 212.574 327.844 178.887 322.283C178.887 322.283 185.786 327.998 221.25 330.276V330.276Z" fill="#0074BD"/>
<path d="M357.549 376.068H355.904V375.148H360.329V376.068H358.692V380.657H357.545L357.549 376.068V376.068ZM366.382 376.298H366.361L364.73 380.657H363.977L362.357 376.298H362.34V380.657H361.253V375.148H362.845L364.347 379.047L365.852 375.148H367.434V380.657H366.382V376.298V376.298ZM212.407 427.832C207.32 432.243 201.94 434.724 197.107 434.724C190.229 434.724 186.497 430.592 186.497 423.975C186.497 416.815 190.49 411.571 206.491 411.571H212.404V427.832H212.407ZM226.453 443.679V394.629C226.453 382.089 219.299 373.817 202.072 373.817C192.017 373.817 183.201 376.305 176.034 379.469L178.096 388.156C183.741 386.082 191.041 384.159 198.205 384.159C208.135 384.159 212.404 388.156 212.404 396.427V402.626H207.442C183.326 402.626 172.445 411.982 172.445 426.052C172.445 438.174 179.616 445.062 193.118 445.062C201.794 445.062 208.278 441.48 214.33 436.236L215.432 443.683H226.453V443.679V443.679ZM273.324 443.679H255.808L234.725 375.075H250.024L263.112 417.233L266.021 429.898C272.628 411.577 277.311 392.978 279.652 375.079H294.534C290.551 397.661 283.373 422.459 273.324 443.679ZM340.531 427.832C335.426 432.243 330.043 434.724 325.228 434.724C318.343 434.724 314.614 430.592 314.614 423.975C314.614 416.815 318.618 411.571 334.601 411.571H340.528V427.832H340.531ZM354.584 443.679V394.629C354.584 382.089 347.409 373.817 330.196 373.817C320.13 373.817 311.318 376.305 304.151 379.469L306.217 388.156C311.862 386.082 319.172 384.159 326.336 384.159C336.252 384.159 340.531 388.156 340.531 396.427V402.626H335.569C311.447 402.626 300.569 411.982 300.569 426.052C300.569 438.174 307.733 445.062 321.231 445.062C329.911 445.062 336.385 441.48 342.454 436.236L343.562 443.683H354.584V443.679V443.679ZM157.044 455.338C153.047 461.188 146.573 465.819 139.493 468.429L132.563 460.258C137.953 457.491 142.57 453.028 144.72 448.867C146.573 445.163 147.343 440.4 147.343 429.003V350.667H162.27V427.926C162.27 443.17 161.058 449.334 157.044 455.338V455.338Z" fill="#EA2D2E"/>
</svg>
