<svg width="500" height="500" viewBox="0 0 500 500" fill="none" xmlns="http://www.w3.org/2000/svg">
<rect width="500" height="500" rx="9" fill="black"/>
<path d="M205.395 264.91C205.395 264.91 192.566 272.375 214.539 274.898C241.156 277.937 254.762 277.5 284.09 271.957C284.09 271.957 291.82 276.789 302.586 280.977C236.82 309.152 153.742 279.344 205.395 264.91ZM197.352 228.133C197.352 228.133 182.961 238.793 204.949 241.066C233.387 244 255.836 244.242 294.711 236.758C294.711 236.758 300.074 242.211 308.523 245.184C229.023 268.441 140.473 247.016 197.352 228.133V228.133Z" fill="#0074BD"/>
<path d="M265.098 165.746C281.312 184.41 260.848 201.191 260.848 201.191C260.848 201.191 301.992 179.953 283.098 153.348C265.445 128.547 251.918 116.23 325.172 73.7461C325.176 73.7461 210.18 102.457 265.098 165.746Z" fill="#EA2D2E"/>
<path d="M352.078 292.113C352.078 292.113 361.578 299.945 341.617 306C303.664 317.496 183.633 320.965 150.293 306.457C138.316 301.242 160.789 294.008 167.855 292.488C175.227 290.891 179.438 291.184 179.438 291.184C166.109 281.797 93.2852 309.617 142.449 317.598C276.527 339.328 386.852 307.809 352.078 292.113V292.113ZM211.57 190.027C211.57 190.027 150.52 204.531 189.953 209.805C206.609 212.031 239.789 211.52 270.719 208.926C295.988 206.805 321.348 202.27 321.348 202.27C321.348 202.27 312.445 206.09 305.996 210.488C243.988 226.797 124.227 219.199 158.707 202.527C187.859 188.422 211.57 190.027 211.57 190.027V190.027ZM321.094 251.238C384.121 218.496 354.977 187.027 334.637 191.266C329.664 192.305 327.43 193.203 327.43 193.203C327.43 193.203 329.285 190.297 332.812 189.051C373.055 174.91 403.996 230.773 319.836 252.898C319.836 252.898 320.801 252.023 321.094 251.238Z" fill="#0074BD"/>
<path d="M283.102 5.12891C283.102 5.12891 318.004 40.0469 249.992 93.7305C195.453 136.805 237.555 161.359 249.969 189.426C218.133 160.699 194.781 135.41 210.445 111.879C233.449 77.3398 297.18 60.5859 283.102 5.12891V5.12891Z" fill="#EA2D2E"/>
<path d="M217.77 339.996C278.254 343.863 371.164 337.844 373.363 309.223C373.363 309.223 369.137 320.07 323.367 328.68C271.734 338.398 208.043 337.27 170.277 331.035C170.277 331.035 178.012 337.441 217.77 339.996V339.996Z" fill="#0074BD"/>
<path d="M370.57 391.332H368.727V390.301H373.688V391.332H371.852V396.477H370.566L370.57 391.332V391.332ZM380.473 391.59H380.449L378.621 396.477H377.777L375.961 391.59H375.941V396.477H374.723V390.301H376.508L378.191 394.672L379.879 390.301H381.652V396.477H380.473V391.59V391.59ZM207.855 449.363C202.152 454.309 196.121 457.09 190.703 457.09C182.992 457.09 178.809 452.457 178.809 445.039C178.809 437.012 183.285 431.133 201.223 431.133H207.852V449.363H207.855ZM223.602 467.129V412.141C223.602 398.082 215.582 388.809 196.27 388.809C184.996 388.809 175.113 391.598 167.078 395.145L169.391 404.883C175.719 402.559 183.902 400.402 191.934 400.402C203.066 400.402 207.852 404.883 207.852 414.156V421.106H202.289C175.254 421.106 163.055 431.594 163.055 447.367C163.055 460.957 171.094 468.68 186.23 468.68C195.957 468.68 203.227 464.664 210.012 458.785L211.246 467.133H223.602V467.129V467.129ZM276.148 467.129H256.512L232.875 390.219H250.027L264.699 437.481L267.961 451.68C275.367 431.141 280.617 410.289 283.242 390.223H299.926C295.461 415.539 287.414 443.34 276.148 467.129ZM351.492 449.363C345.77 454.309 339.734 457.09 334.336 457.09C326.617 457.09 322.438 452.457 322.438 445.039C322.438 437.012 326.926 431.133 344.844 431.133H351.488V449.363H351.492ZM367.246 467.129V412.141C367.246 398.082 359.203 388.809 339.906 388.809C328.621 388.809 318.742 391.598 310.707 395.145L313.023 404.883C319.352 402.559 327.547 400.402 335.578 400.402C346.695 400.402 351.492 404.883 351.492 414.156V421.106H345.93C318.887 421.106 306.691 431.594 306.691 447.367C306.691 460.957 314.723 468.68 329.855 468.68C339.586 468.68 346.844 464.664 353.648 458.785L354.891 467.133H367.246V467.129V467.129ZM145.789 480.199C141.309 486.758 134.051 491.949 126.113 494.875L118.344 485.715C124.387 482.613 129.562 477.609 131.973 472.945C134.051 468.793 134.914 463.453 134.914 450.676V362.855H151.648V449.469C151.648 466.559 150.289 473.469 145.789 480.199V480.199Z" fill="#EA2D2E"/>
</svg>
