<svg width="500" height="500" viewBox="0 0 500 500" fill="none" xmlns="http://www.w3.org/2000/svg">
<rect width="500" height="500" rx="9" fill="black"/>
<g clip-path="url(#clip0_107_7)">
<path fill-rule="evenodd" clip-rule="evenodd" d="M429.905 159.215C430.03 159.676 430.093 160.151 430.095 160.628V234.763C430.095 235.714 429.843 236.649 429.367 237.472C428.89 238.296 428.204 238.978 427.378 239.452L365.155 275.276V346.283C365.155 348.215 364.128 349.999 362.453 350.972L232.568 425.742C232.27 425.911 231.946 426.019 231.622 426.134C231.5 426.175 231.385 426.249 231.257 426.283C230.349 426.522 229.394 426.522 228.486 426.283C228.338 426.242 228.203 426.161 228.061 426.107C227.764 425.999 227.453 425.905 227.169 425.742L97.3108 350.972C96.4859 350.498 95.8004 349.815 95.3236 348.992C94.8467 348.169 94.5953 347.234 94.5946 346.283V123.878C94.5946 123.391 94.6622 122.918 94.7838 122.459C94.8243 122.303 94.9189 122.161 94.973 122.006C95.0743 121.722 95.1689 121.432 95.3176 121.168C95.4189 120.992 95.5676 120.851 95.6892 120.688C95.8446 120.472 95.9865 120.249 96.1689 120.06C96.3243 119.905 96.527 119.79 96.7027 119.655C96.8987 119.492 97.0743 119.317 97.2973 119.188H97.3041L162.236 81.8032C163.059 81.3301 163.991 81.0811 164.939 81.0811C165.888 81.0811 166.82 81.3301 167.642 81.8032L232.574 119.188H232.588C232.804 119.323 232.986 119.492 233.182 119.648C233.358 119.783 233.554 119.905 233.709 120.053C233.899 120.249 234.034 120.472 234.196 120.688C234.311 120.851 234.466 120.992 234.561 121.168C234.716 121.438 234.804 121.722 234.912 122.006C234.966 122.161 235.061 122.303 235.101 122.465C235.226 122.926 235.289 123.401 235.291 123.878V262.79L289.399 231.634V160.621C289.399 160.148 289.466 159.668 289.588 159.215C289.635 159.053 289.723 158.911 289.777 158.756C289.885 158.472 289.98 158.182 290.128 157.918C290.23 157.742 290.378 157.601 290.493 157.438C290.655 157.222 290.791 156.999 290.98 156.81C291.135 156.655 291.331 156.54 291.507 156.405C291.709 156.242 291.885 156.067 292.101 155.938H292.108L357.047 118.553C357.869 118.079 358.801 117.83 359.75 117.83C360.699 117.83 361.631 118.079 362.453 118.553L427.385 155.938C427.615 156.073 427.791 156.242 427.993 156.398C428.162 156.533 428.358 156.655 428.514 156.803C428.703 156.999 428.838 157.222 429 157.438C429.122 157.601 429.27 157.742 429.365 157.918C429.52 158.182 429.608 158.472 429.716 158.756C429.777 158.911 429.865 159.053 429.905 159.215V159.215ZM419.27 231.634V169.986L396.547 183.067L365.155 201.141V262.79L419.277 231.634H419.27ZM354.338 343.155V281.465L323.459 299.1L235.284 349.425V411.695L354.338 343.155ZM105.419 133.236V343.155L224.459 411.688V349.432L162.27 314.236L162.25 314.222L162.223 314.209C162.014 314.087 161.838 313.911 161.642 313.763C161.473 313.628 161.277 313.519 161.128 313.371L161.115 313.351C160.939 313.182 160.818 312.972 160.669 312.783C160.534 312.601 160.372 312.445 160.264 312.256L160.257 312.236C160.135 312.033 160.061 311.79 159.973 311.56C159.885 311.357 159.77 311.168 159.716 310.952V310.945C159.649 310.688 159.635 310.418 159.608 310.155C159.581 309.952 159.527 309.749 159.527 309.546V309.533V164.391L128.142 146.31L105.419 133.242V133.236ZM164.946 92.7357L110.845 123.878L164.932 155.019L219.027 123.871L164.932 92.7357H164.946ZM193.081 287.087L224.466 269.019V133.236L201.743 146.317L170.351 164.391V300.175L193.081 287.087ZM359.75 129.486L305.655 160.628L359.75 191.769L413.838 160.621L359.75 129.486V129.486ZM354.338 201.141L322.946 183.067L300.223 169.986V231.634L331.608 249.702L354.338 262.79V201.141ZM229.865 340.067L309.209 294.769L348.872 272.134L294.818 241.013L232.581 276.844L175.858 309.499L229.865 340.067V340.067Z" fill="#FF2D20"/>
</g>
<defs>
<clipPath id="clip0_107_7">
<rect width="337.838" height="351.351" fill="white" transform="translate(94.5946 74.3243)"/>
</clipPath>
</defs>
</svg>
