<svg width="500" height="500" viewBox="0 0 500 500" fill="none" xmlns="http://www.w3.org/2000/svg">
<rect width="500" height="500" rx="9" fill="#BBB5BC"/>
<g clip-path="url(#clip0_108_840)">
<path d="M25 345.652H39.792V287.328L62.6914 338.191C65.3925 344.323 69.0932 346.526 76.3456 346.526C83.598 346.526 87.1541 344.347 89.8595 338.191L112.761 287.328V345.674H127.555V287.424C127.555 281.741 125.275 278.993 120.584 277.574C109.348 274.07 101.808 277.101 98.3966 284.678L75.9247 334.876L54.1587 284.656C50.8877 277.079 43.2077 274.049 31.9718 277.552C27.2757 278.974 25 281.722 25 287.402V345.652ZM139.85 298.163H154.638V330.31C154.5 332.058 155.199 336.157 163.302 336.282C167.437 336.348 195.21 336.282 195.469 336.282V298.003H210.289C210.355 298.003 210.274 350.196 210.276 350.42C210.357 363.291 194.285 366.088 186.879 366.305H140.172V356.363L186.962 356.361C196.482 355.353 195.359 350.63 195.359 349.038V345.162H163.92C149.293 345.03 139.98 338.651 139.863 331.315C139.852 330.658 140.179 298.479 139.855 298.161L139.85 298.163Z" fill="#00618A"/>
<path d="M221.692 345.652H264.22C269.196 345.652 274.035 344.612 277.878 342.81C284.28 339.875 287.408 335.896 287.408 330.687V319.891C287.408 315.627 283.852 311.65 276.885 308.999C273.186 307.575 268.635 306.82 264.226 306.82H246.304C240.331 306.82 237.486 305.02 236.775 301.043C236.633 300.57 236.633 300.167 236.633 299.716V292.993C236.633 292.614 236.633 292.233 236.775 291.76C237.486 288.729 239.051 287.875 244.313 287.38C244.74 287.38 245.308 287.284 245.738 287.284H287.981V277.436H246.448C240.474 277.436 237.345 277.815 234.5 278.667C225.673 281.415 221.832 285.795 221.832 293.372V301.991C221.832 308.622 229.374 314.305 242.028 315.629C243.453 315.724 244.874 315.818 246.295 315.818H261.657C262.227 315.818 262.797 315.818 263.222 315.914C267.914 316.293 269.909 317.145 271.33 318.849C272.207 319.724 272.47 320.557 272.47 321.476V330.096C272.47 331.138 271.759 332.465 270.336 333.599C269.056 334.738 266.923 335.494 264.077 335.684C263.507 335.684 263.082 335.778 262.514 335.778H221.692V345.628V345.652ZM379.684 328.51C379.684 338.645 387.221 344.327 402.441 345.464C403.86 345.574 405.283 345.636 406.707 345.652H445.253V335.802H406.422C397.747 335.802 394.473 333.623 394.473 328.414V277.456H379.681V328.506L379.684 328.51ZM296.844 329.023V293.908C296.844 284.987 303.115 279.576 315.515 277.868C316.837 277.679 318.171 277.584 319.507 277.583H347.585C348.968 277.584 350.35 277.679 351.72 277.868C364.12 279.576 370.39 284.985 370.39 293.908V329.023C370.39 336.26 367.726 340.134 361.588 342.659L376.158 355.798H358.983L347.195 345.168L335.327 345.919H319.507C316.8 345.919 313.949 345.538 310.812 344.684C301.385 342.122 296.847 337.186 296.847 329.023H296.844ZM312.812 328.147C312.812 328.622 312.954 329.095 313.097 329.666C313.974 333.748 317.799 336.026 323.62 336.026H337.059L324.716 324.895H341.891L352.634 334.602C354.618 333.547 355.923 331.931 356.361 329.857C356.504 329.384 356.504 328.909 356.504 328.433V294.765C356.504 294.386 356.504 293.889 356.361 293.435C355.484 289.64 351.656 287.457 345.956 287.457H323.646C317.069 287.457 312.816 290.304 312.816 294.765V328.173L312.812 328.147Z" fill="#E48E00"/>
<path d="M458.267 261.115C449.176 260.87 442.228 261.713 436.291 264.214C434.603 264.926 431.913 264.943 431.637 267.056C432.564 268.026 432.711 269.476 433.445 270.67C434.864 272.962 437.26 276.035 439.393 277.642C441.726 279.401 444.129 281.284 446.635 282.81C451.085 285.521 456.053 287.069 460.337 289.783C462.863 291.381 465.371 293.396 467.835 295.205C469.052 296.098 469.874 297.487 471.452 298.045V297.787C470.619 296.729 470.407 295.275 469.644 294.173L466.283 290.816C462.994 286.437 458.824 282.633 454.389 279.451C450.853 276.915 442.936 273.49 441.461 269.378L441.202 269.119C443.71 268.835 446.646 267.93 448.963 267.313C452.85 266.272 456.325 266.54 460.341 265.506L465.772 263.956V262.922C463.742 260.842 462.295 258.089 460.083 256.208C454.295 251.281 447.974 246.364 441.469 242.259C437.861 239.981 433.401 238.505 429.576 236.576C428.289 235.928 426.028 235.59 425.18 234.509C423.172 231.951 422.078 228.706 420.528 225.749C417.283 219.508 414.095 212.689 411.219 206.122C409.257 201.643 407.974 197.226 405.532 193.208C393.792 173.929 381.153 162.292 361.579 150.856C357.413 148.426 352.399 147.462 347.098 146.207L338.566 145.691C336.829 144.968 335.023 142.844 333.392 141.815C326.906 137.719 310.273 128.822 305.469 140.501C302.437 147.887 310.001 155.094 312.709 158.838C314.607 161.466 317.041 164.407 318.396 167.361C319.288 169.301 319.444 171.248 320.207 173.302C322.085 178.339 323.721 183.864 326.152 188.539C327.38 190.904 328.735 193.396 330.289 195.512C331.243 196.81 332.876 197.382 333.133 199.388C331.537 201.621 331.445 205.081 330.546 207.911C326.505 220.638 328.029 236.455 333.907 245.876C335.711 248.767 339.958 254.968 345.8 252.59C350.909 250.51 349.747 244.072 351.231 238.387C351.56 237.095 351.358 236.153 352.007 235.288V235.547L356.661 244.843C360.104 250.383 366.22 256.175 371.399 260.084C374.084 262.11 376.222 265.613 379.673 266.798V266.54H379.414C378.741 265.488 377.689 265.057 376.827 264.218C374.803 262.237 372.552 259.773 370.879 257.504C366.165 251.114 362.004 244.124 358.211 236.843C356.401 233.368 354.824 229.533 353.301 225.997C352.713 224.632 352.72 222.572 351.492 221.864C349.819 224.457 347.355 226.551 346.061 229.612C343.992 234.504 343.724 240.469 342.959 246.658C342.505 246.82 342.707 246.708 342.442 246.916C338.842 246.049 337.575 242.346 336.237 239.169C332.852 231.132 332.225 218.199 335.202 208.953C335.97 206.562 339.456 199.024 338.046 196.815C337.373 194.61 335.152 193.311 333.909 191.647C332.374 189.566 330.835 186.82 329.772 184.416C327.001 178.153 325.707 171.123 322.791 164.788C321.397 161.762 319.042 158.7 317.104 156.029C314.96 153.051 312.56 150.852 310.9 147.269C310.308 145.988 309.506 143.941 310.382 142.62C310.466 142.241 310.657 141.893 310.932 141.619C311.207 141.344 311.555 141.154 311.935 141.07C313.434 139.916 317.613 141.453 319.174 142.104C323.318 143.825 326.781 145.463 330.294 147.786C331.982 148.881 333.685 151.062 335.722 151.662H338.046C341.685 152.499 345.763 151.925 349.161 152.954C355.173 154.778 360.557 157.619 365.451 160.702C380.355 170.101 392.538 183.481 400.873 199.462C402.215 202.031 402.794 204.486 403.975 207.21C406.358 212.685 409.36 218.363 411.732 223.737C414.1 229.102 416.402 234.511 419.747 238.974C421.506 241.317 428.298 242.578 431.382 243.879C433.546 244.792 437.089 245.745 439.139 246.978C443.052 249.336 446.845 252.146 450.517 254.73C452.352 256.022 457.993 258.853 458.274 261.185L458.267 261.115Z" fill="#00618A"/>
<path fill-rule="evenodd" clip-rule="evenodd" d="M342.698 162.721C340.802 162.686 339.462 162.927 338.044 163.238V163.496H338.302C339.206 165.353 340.802 166.547 341.92 168.145L344.507 173.567L344.766 173.309C346.366 172.181 347.1 170.379 347.09 167.626C346.447 166.952 346.353 166.107 345.796 165.301C345.057 164.228 343.604 163.619 342.694 162.717L342.698 162.721Z" fill="#00618A"/>
<path fill-rule="evenodd" clip-rule="evenodd" d="M452.197 335.522C452.197 342.026 457.342 346.41 463.097 346.41C468.852 346.41 473.998 342.026 473.998 335.522C473.998 329.018 468.852 324.634 463.097 324.634C457.342 324.634 452.197 329.018 452.197 335.522ZM471.555 335.522C471.555 340.458 467.778 344.146 463.093 344.146C458.357 344.146 454.63 340.458 454.63 335.522C454.63 330.586 458.353 326.898 463.093 326.898C467.774 326.898 471.555 330.586 471.555 335.522ZM466.031 341.737H468.471L464.897 336.28C466.816 336.076 468.267 335.145 468.267 332.881C468.267 330.354 466.666 329.312 463.588 329.312H458.732V341.739H460.826V336.367H462.773L466.028 341.739L466.031 341.737ZM460.826 334.62V331.05H463.238C464.487 331.05 466 331.282 466 332.737C466 334.477 464.634 334.624 463.062 334.624H460.826V334.62Z" fill="#E48E00"/>
</g>
<defs>
<clipPath id="clip0_108_840">
<rect width="449" height="233" fill="white" transform="translate(25 134)"/>
</clipPath>
</defs>
</svg>
