<svg width="500" height="500" viewBox="0 0 500 500" fill="none" xmlns="http://www.w3.org/2000/svg">
<rect width="500" height="500" rx="9" fill="#7175AA"/>
<path d="M149 195H91C90.3507 194.963 89.7071 195.138 89.166 195.499C88.6249 195.86 88.2157 196.387 88 197L61 338C61 341 64 341 64 341H94C97 341 97 339 97 339L104 304H131C173 304 194 276 199 251C204 226 200 195 149 195ZM162 249C158 268 145 276 127 276H109L120 223H138C165 223 164 233 162 249Z" fill="black" stroke="white" stroke-width="6"/>
<path d="M269 304C265 304 266 300 266 300L278 239C278 231 284 223 260 224H242L227 302C227 302 227 305 223 305H194C191 305 191 302 191 302L219 161C219 161 219 159 223 159H253C256 159 255 162 255 162L248 196H274C310 196 319 213 316 233L303 302C303 302 303 305 298 305L269 304Z" fill="black" stroke="white" stroke-width="6"/>
<path d="M388 195H330C329.351 194.963 328.707 195.138 328.166 195.499C327.625 195.86 327.216 196.387 327 197L300 338C300 341 303 341 303 341H333C336 341 336 339 336 339L343 304H370C412 304 433 276 438 251C443 226 439 195 388 195ZM401 249C397 268 384 276 366 276H348L359 223H377C404 223 403 233 401 249Z" fill="black" stroke="white" stroke-width="6"/>
</svg>
