<svg width="500" height="512" viewBox="0 0 500 512" fill="none" xmlns="http://www.w3.org/2000/svg">
<rect width="500" height="500" rx="9" fill="#00FF94"/>
<path d="M293 275L263.269 57H261.046C209.142 57.0883 159.383 77.7504 122.647 114.47C85.9108 151.189 65.185 200.979 65 252.956V255.182L293 275Z" fill="#ED6C47"/>
<path d="M266.253 57H264V256.167L364.492 296L465 256.167V253.93C464.812 201.697 443.802 151.662 406.56 114.761C369.318 77.8593 318.874 57.0928 266.253 57V57Z" fill="#FF8F6B"/>
<path d="M465 255V257.2C464.805 309.661 443.892 359.913 406.83 396.975C369.768 434.038 319.57 454.899 267.204 455H262.796C210.432 454.891 160.239 434.027 123.178 396.966C86.1182 359.905 65.2027 309.659 65 257.2V255H465Z" fill="#D35230"/>
<path opacity="0.1" d="M274 155.218V367.751C273.972 371.367 272.882 374.895 270.865 377.893C268.848 380.891 265.994 383.226 262.66 384.606C260.483 385.525 258.145 385.999 255.782 386H111.981C109.2 382.813 106.51 379.427 104.019 376.041C78.6678 342.209 64.9736 301.033 65.0002 258.719V254.337C64.9521 216.168 76.0972 178.828 97.0493 146.959C99.2349 143.573 101.527 140.187 104.019 137H255.782C260.596 137.032 265.204 138.96 268.613 142.369C272.021 145.777 273.956 150.392 274 155.218V155.218Z" fill="black"/>
<path opacity="0.2" d="M264 164.381V378.635C263.999 381.012 263.526 383.365 262.61 385.554C261.231 388.921 258.902 391.802 255.912 393.838C252.923 395.874 249.406 396.973 245.802 397H121.03C117.882 393.767 114.862 390.42 111.969 386.96C109.188 383.747 106.499 380.334 104.009 376.92C78.6643 342.815 64.9736 301.305 65.0001 258.649V254.231C64.9551 215.759 76.0972 178.122 97.0412 146H245.787C250.602 146.032 255.212 147.978 258.619 151.417C262.027 154.857 263.96 159.513 264 164.381V164.381Z" fill="black"/>
<path opacity="0.2" d="M264 164.308V357.708C263.956 362.553 262.022 367.187 258.614 370.61C255.207 374.032 250.6 375.968 245.787 376H104.009C78.6643 342.031 64.9736 300.687 65.0001 258.2V253.8C64.9551 215.481 76.0972 177.994 97.0412 146H245.787C250.602 146.032 255.212 147.97 258.619 151.396C262.027 154.821 263.96 159.459 264 164.308V164.308Z" fill="black"/>
<path opacity="0.2" d="M253 164.308V357.708C252.956 362.553 251.033 367.187 247.644 370.61C244.256 374.032 239.674 375.968 234.888 376H103.791C78.5882 342.031 64.9738 300.687 65.0001 258.2V253.8C64.9553 215.481 76.0354 177.994 96.8627 146H234.888C239.677 146.032 244.261 147.97 247.649 151.396C251.038 154.821 252.96 159.459 253 164.308V164.308Z" fill="black"/>
<path d="M53.1692 146H234.831C239.643 145.996 244.26 147.932 247.667 151.384C251.074 154.835 252.992 159.519 253 164.406V348.594C252.992 353.481 251.074 358.165 247.667 361.616C244.26 365.068 239.643 367.004 234.831 367H53.1692C50.7859 367.004 48.4252 366.531 46.222 365.608C44.0187 364.685 42.0162 363.33 40.3289 361.621C38.6415 359.911 37.3024 357.881 36.388 355.646C35.4737 353.41 35.002 351.014 35 348.594V164.406C35.002 161.986 35.4737 159.59 36.388 157.354C37.3024 155.119 38.6415 153.089 40.3289 151.379C42.0162 149.67 44.0187 148.315 46.222 147.392C48.4252 146.469 50.7859 145.996 53.1692 146V146Z" fill="url(#paint0_linear_108_805)"/>
<path d="M146.678 195.116C158.68 194.299 170.578 197.823 180.253 205.062C184.23 208.647 187.349 213.103 189.372 218.092C191.395 223.08 192.269 228.47 191.928 233.851C192.063 241.432 190.065 248.895 186.167 255.369C182.224 261.739 176.544 266.818 169.813 269.991C162.122 273.602 153.718 275.389 145.242 275.214H121.876V319H98V195.116H146.678ZM121.86 256.292H142.416C148.933 256.768 155.397 254.815 160.593 250.803C162.717 248.751 164.372 246.252 165.439 243.483C166.506 240.713 166.961 237.74 166.77 234.774C166.77 221.127 158.92 214.299 143.219 214.288H121.86V256.292Z" fill="white"/>
<defs>
<linearGradient id="paint0_linear_108_805" x1="72.9514" y1="131.535" x2="218.374" y2="379.515" gradientUnits="userSpaceOnUse">
<stop stop-color="#CA4C28"/>
<stop offset="0.5" stop-color="#C5401E"/>
<stop offset="1" stop-color="#B62F14"/>
</linearGradient>
</defs>
</svg>
