<svg width="500" height="500" viewBox="0 0 500 500" fill="none" xmlns="http://www.w3.org/2000/svg">
<rect width="500" height="500" rx="9" fill="#FF0000"/>
<path d="M328.08 335.088C329.155 335.155 330.314 335.291 331.473 335.291C347.887 335.308 364.317 335.209 380.731 335.374C384.326 335.409 385.401 334.181 385.216 330.737C384.981 326.251 385.165 321.749 385.165 316.205C403.796 329.914 421.806 343.152 440.286 356.76C421.94 370.267 403.931 383.522 385.165 397.348C385.165 392.124 385.165 387.806 385.165 383.489C385.165 377.911 385.165 377.894 379.739 377.894C274.79 377.894 169.825 377.894 64.8761 377.894C59.8025 377.894 59.8025 377.894 59.8025 372.787C59.8025 361.716 59.9538 350.645 59.7185 339.59C59.6344 335.995 60.7937 335.189 64.2376 335.206C120.668 335.307 177.099 335.39 233.53 335.241C262.459 335.158 285.29 323.178 300.393 298.247C327.643 253.224 299.234 194.256 247.02 186.663C206.7 180.799 169.22 207.864 162.382 248.873C161.66 253.14 161.61 257.524 161.19 262.665C167.792 261.775 173.773 260.952 180.543 260.044C169.942 280.54 159.711 300.33 149.329 320.389C133.419 303.993 117.745 287.848 102.424 272.056C106.271 271.418 111.378 270.679 116.435 269.62C117.392 269.417 118.804 267.873 118.77 266.983C118.484 256.247 119.224 245.63 121.324 235.096C121.391 234.777 121.24 234.408 121.139 233.786C110.891 232.039 101.382 228.343 92.7637 222.396C71.6967 207.813 60.676 180.682 65.8504 155.952C71.4783 129.005 91.8061 108.862 118.081 103.89C135.116 100.681 150.908 103.737 165.574 112.743C168.161 114.339 169.741 114.574 171.437 111.802C172.429 110.173 173.924 108.862 175.637 106.88C177.771 115.482 179.77 123.529 181.753 131.576C182.425 134.281 182.945 137.036 183.735 139.707C184.592 142.596 183.718 143.89 180.661 143.689C171.824 143.084 162.97 142.546 154.134 141.958C151.95 141.806 149.782 141.572 146.977 141.303C149.161 138.548 151.143 136.078 153.31 133.373C148.54 129.744 143.281 127.929 137.805 127.039C111.328 122.704 87.993 143.049 88.5306 169.845C88.9338 190.408 106.271 208.787 126.75 210.534C129.405 210.753 130.329 209.409 131.353 207.426C145.869 179.572 167.725 159.883 197.461 149.635C266.256 125.913 338.076 168.417 351.331 237.985C357.866 272.24 350.424 303.521 329.642 331.56C329.071 332.333 328.55 333.156 328.046 333.979C327.945 334.132 328.081 334.433 328.164 335.071L328.08 335.088Z" fill="black"/>
</svg>
