<svg width="531" height="531" viewBox="0 0 531 531" fill="none" xmlns="http://www.w3.org/2000/svg">
<rect x="16" y="31" width="500" height="500" rx="9" fill="#661E72"/>
<path d="M207.75 148.781H431.766C445.555 148.781 456.656 159.882 456.656 173.672V405.984C456.656 419.774 445.555 430.875 431.766 430.875H274.125L207.75 148.781Z" fill="#E6E7E8"/>
<path d="M324.018 381.223L274.125 430.875L262.417 381.116L324.018 381.223Z" fill="#376AD7"/>
<path fill-rule="evenodd" clip-rule="evenodd" d="M290.613 206.862C289.514 206.847 288.422 207.05 287.402 207.46C286.382 207.87 285.453 208.478 284.67 209.25C283.887 210.022 283.266 210.942 282.841 211.957C282.417 212.971 282.198 214.06 282.198 215.159C282.198 216.259 282.417 217.347 282.841 218.362C283.266 219.376 283.887 220.296 284.67 221.068C285.453 221.84 286.382 222.448 287.402 222.858C288.422 223.268 289.514 223.472 290.613 223.456H406.77C407.869 223.472 408.961 223.268 409.981 222.858C411.002 222.448 411.93 221.84 412.713 221.068C413.496 220.296 414.118 219.376 414.542 218.362C414.966 217.347 415.185 216.259 415.185 215.159C415.185 214.06 414.966 212.971 414.542 211.957C414.118 210.942 413.496 210.022 412.713 209.25C411.93 208.478 411.002 207.87 409.981 207.46C408.961 207.05 407.869 206.847 406.77 206.862H290.613Z" fill="#5F7987"/>
<path d="M323.542 207.379C322.454 207.461 321.393 207.758 320.419 208.25C319.446 208.743 318.58 209.422 317.869 210.249C317.159 211.077 316.619 212.036 316.28 213.073C315.941 214.11 315.809 215.204 315.893 216.292C319.164 267.864 348.898 314.116 394.454 338.509C395.417 339.065 396.482 339.421 397.585 339.558C398.688 339.695 399.807 339.609 400.876 339.305C401.946 339.001 402.942 338.485 403.808 337.788C404.675 337.091 405.393 336.227 405.918 335.247C406.444 334.268 406.767 333.192 406.869 332.085C406.971 330.978 406.849 329.863 406.512 328.804C406.174 327.745 405.627 326.763 404.903 325.92C404.179 325.076 403.293 324.386 402.297 323.892C361.784 302.199 335.363 261.118 332.455 215.255C332.401 214.147 332.126 213.062 331.646 212.062C331.166 211.063 330.492 210.169 329.661 209.435C328.83 208.701 327.86 208.141 326.809 207.788C325.758 207.435 324.647 207.296 323.542 207.379Z" fill="#5F7987"/>
<path d="M373.809 207.282C372.719 207.23 371.63 207.393 370.604 207.762C369.577 208.132 368.632 208.701 367.826 209.435C367.019 210.17 366.365 211.055 365.901 212.042C365.438 213.03 365.173 214.1 365.123 215.19C362.535 256.372 340.962 293.994 306.721 317.021C304.895 318.251 303.632 320.156 303.21 322.316C302.788 324.477 303.241 326.716 304.47 328.543C305.699 330.369 307.603 331.633 309.764 332.055C311.924 332.478 314.164 332.024 315.99 330.795C354.499 304.897 378.774 262.542 381.685 216.227C381.773 215.119 381.638 214.005 381.287 212.95C380.936 211.895 380.376 210.922 379.641 210.088C378.906 209.253 378.012 208.574 377.01 208.092C376.008 207.61 374.92 207.335 373.809 207.282V207.282Z" fill="#5F7987"/>
<path fill-rule="evenodd" clip-rule="evenodd" d="M348.659 173.673C347.57 173.69 346.494 173.921 345.494 174.353C344.494 174.786 343.589 175.412 342.83 176.195C342.072 176.977 341.475 177.9 341.074 178.913C340.673 179.926 340.475 181.01 340.492 182.099V215.287C340.476 216.386 340.679 217.477 341.089 218.497C341.499 219.518 342.108 220.447 342.88 221.23C343.652 222.013 344.572 222.635 345.586 223.059C346.601 223.484 347.689 223.701 348.789 223.701C349.888 223.701 350.977 223.484 351.991 223.059C353.006 222.635 353.925 222.013 354.697 221.23C355.469 220.447 356.078 219.518 356.488 218.497C356.898 217.477 357.101 216.386 357.086 215.287V182.099C357.103 180.988 356.897 179.885 356.48 178.854C356.063 177.824 355.442 176.888 354.656 176.102C353.87 175.316 352.934 174.696 351.904 174.279C350.874 173.861 349.77 173.656 348.659 173.673V173.673Z" fill="#5F7987"/>
<path d="M323.906 381.094H99.8906C86.1011 381.094 75 369.993 75 356.203V123.891C75 110.101 86.1011 99 99.8906 99H257.531L323.906 381.094Z" fill="#518FF5"/>
<path d="M159.775 140.907C149.173 142.301 139.014 147.084 131.06 155.038C115.153 170.943 111.904 195.677 123.152 215.158C134.4 234.639 157.428 244.184 179.156 238.363C200.885 232.54 216.038 212.763 216.039 190.267V181.97H166.257V198.564H196.625C193.532 209.655 186.411 219.22 174.846 222.32C160.294 226.218 145.042 219.907 137.51 206.861C129.978 193.815 132.141 177.422 142.793 166.77C153.446 156.117 169.805 153.988 182.851 161.52L191.148 147.13C181.407 141.506 170.377 139.512 159.775 140.907V140.907Z" fill="#F9F9F9"/>
</svg>
