<svg width="500" height="500" viewBox="0 0 500 500" fill="none" xmlns="http://www.w3.org/2000/svg">
<rect width="500" height="500" rx="9" fill="#FFCE50"/>
<g clip-path="url(#clip0_108_38)">
<path fill-rule="evenodd" clip-rule="evenodd" d="M408.381 38.9345H91.8835C77.8935 38.9345 64.4764 44.4921 54.5839 54.3845C49.6777 59.2908 45.7876 65.1167 43.1364 71.5287C40.4852 77.9406 39.1251 84.8127 39.1339 91.7511V408.249C39.1339 422.239 44.6914 435.656 54.5839 445.549C64.4764 455.441 77.8935 460.999 91.8835 460.999H408.381C422.325 460.928 435.673 455.339 445.508 445.454C455.343 435.57 460.864 422.193 460.863 408.249V91.818C460.864 77.8742 455.343 64.4976 445.508 54.6128C435.673 44.7279 422.325 39.1392 408.381 39.0684V38.9345ZM222.687 358.646C222.616 365.31 219.919 371.678 215.181 376.365C210.444 381.053 204.048 383.682 197.383 383.682H119.463C112.775 383.717 106.345 381.104 101.578 376.412C96.8118 371.721 94.0963 365.333 94.0257 358.646V119.264C94.0168 115.924 94.6692 112.615 95.9452 109.529C97.2213 106.442 99.0957 103.639 101.46 101.281C103.825 98.9221 106.633 97.055 109.723 95.7871C112.813 94.5192 116.123 93.8755 119.463 93.8932H197.383C204.094 93.8932 210.53 96.5592 215.275 101.305C220.021 106.05 222.687 112.486 222.687 119.197V358.646ZM406.306 253.146C406.306 259.857 403.64 266.293 398.895 271.039C394.15 275.784 387.714 278.45 381.003 278.45H302.882C296.171 278.45 289.735 275.784 284.99 271.039C280.244 266.293 277.578 259.857 277.578 253.146V119.264C277.57 115.935 278.218 112.638 279.485 109.56C280.753 106.482 282.615 103.685 284.966 101.328C287.317 98.9714 290.109 97.1016 293.183 95.8257C296.258 94.5499 299.554 93.8932 302.882 93.8932H381.003C387.714 93.8932 394.15 96.5592 398.895 101.305C403.64 106.05 406.306 112.486 406.306 119.197V253.146Z" fill="url(#paint0_linear_108_38)"/>
</g>
<defs>
<linearGradient id="paint0_linear_108_38" x1="250.133" y1="461.066" x2="250.133" y2="39.0014" gradientUnits="userSpaceOnUse">
<stop offset="0.18" stop-color="#0052CC"/>
<stop offset="1" stop-color="#2684FF"/>
</linearGradient>
<clipPath id="clip0_108_38">
<rect width="422" height="422" fill="white" transform="translate(39 39)"/>
</clipPath>
</defs>
</svg>
