<svg width="205" height="205" viewBox="0 0 205 205" fill="none" xmlns="http://www.w3.org/2000/svg">
<g clip-path="url(#clip0_124_6)">
<path d="M86.6071 0.579093C65.0158 3.59183 43.0228 15.0402 27.2561 31.4095C-11.7086 71.981 -11.0057 135.249 28.9634 174.816C42.4203 188.172 57.3836 196.608 77.5689 202.131C87.511 204.843 115.329 204.542 125.974 201.629C162.126 191.687 188.639 165.878 199.685 129.625C202.296 121.189 202.497 119.381 202.497 102.51C202.497 87.0447 202.196 83.329 200.288 76.6006C188.036 32.3133 149.674 1.68376 104.684 0.0769694C98.3568 -0.12388 90.2224 0.0769694 86.6071 0.579093ZM114.726 15.6428C142.443 20.0615 166.244 37.4349 178.897 62.5411C182.613 69.8721 185.525 77.9061 186.53 83.7307L187.233 87.9486H175.182H163.231L162.528 84.735C161.524 79.7137 155.298 67.8636 150.879 62.5411C142.745 52.5991 131.095 45.0672 118.14 41.1507C108.801 38.2383 92.3313 38.7405 82.088 42.0545C61.9027 48.6825 45.2322 66.6585 39.9097 87.4464C38.0016 95.0787 38.0016 109.942 39.9097 117.574C47.3411 146.195 71.8447 165.376 101.169 165.577C112.416 165.677 118.843 164.171 129.79 159.049C144.753 151.919 158.411 135.751 162.327 120.486L163.532 115.565L175.282 115.264C184.421 115.063 187.032 115.264 187.032 116.268C187.032 120.084 182.312 133.642 178.395 141.174C173.073 151.517 165.34 161.259 156.704 168.288C148.77 174.715 132.802 182.749 122.258 185.461C112.015 188.172 93.3356 188.373 83.2931 185.963C48.5462 177.628 23.2392 151.317 16.6111 116.57C14.6026 106.125 15.406 88.3503 18.3184 78.1069C30.2689 36.1294 72.146 8.91434 114.726 15.6428ZM112.718 54.9088C118.743 56.3148 128.484 61.2356 132.702 64.9513L136.117 68.0645L129.187 74.9938C125.371 78.8099 121.756 81.9231 121.153 81.9231C120.551 81.9231 119.245 81.0193 118.241 79.9146C115.831 77.2031 106.491 73.8891 101.269 73.8891C91.2267 73.8891 80.0795 81.2201 75.46 90.66C70.1375 101.908 73.8532 116.57 83.9961 124.202C94.6411 132.336 107.696 132.336 118.241 124.202C120.852 122.193 124.166 118.679 125.471 116.268L127.982 112.05H114.324H100.667V102.008V91.9655H124.668H148.67L149.272 95.0787C153.088 114.36 141.238 136.855 122.66 145.693C80.4812 165.577 37.1982 122.093 57.7853 80.6176C64.3129 67.5623 77.6693 57.0178 90.6241 54.5071C95.3441 53.7037 108.198 53.9046 112.718 54.9088Z" fill="#A03CFF"/>
</g>
<defs>
<clipPath id="clip0_124_6">
<rect width="205" height="205" fill="white"/>
</clipPath>
</defs>
</svg>
